# xmcd CD database file
#
# Track frame offsets:
#	150
#	29536
#	51230
#	74957
#	88598
#	108061
#	129717
#	156649
#	190326
#	227091
#	251541
#	290953
#	314521
#	331079
#
# Disc length: 4662 seconds
#
# Revision: 0
# Processed by: cddbd v1.4PL0 Copyright (c) Steve Scherf et al.
# Submitted via: CDex 1.50Beta7
#
DISCID=da12340e
DTITLE=varius - new age
DYEAR=2002
DGENRE=New Age
TTITLE0=Jonathan the Seagull
TTITLE1=Heaven's Corner
TTITLE2=Battle Field
TTITLE3=King William's March
TTITLE4=Secret of my real World
TTITLE5=Hymm for the World
TTITLE6=Celebration of The Young
TTITLE7=M'Yab Ye
TTITLE8=Kundum
TTITLE9=Life
TTITLE10=Red Corner
TTITLE11=O Mama
TTITLE12=Old Love Song
TTITLE13=Plaisir d'Amour
EXTD=YEAR: 2002
EXTT0=
EXTT1=
EXTT2=
EXTT3=
EXTT4=
EXTT5=
EXTT6=
EXTT7=
EXTT8=
EXTT9=
EXTT10=
EXTT11=
EXTT12=
EXTT13=
PLAYORDER=
